<?xml version='1.0' encoding='utf-8'?>
<svg xmlns="http://www.w3.org/2000/svg" width="2024" height="1100" viewBox="0 0 2024 1100"><g id="09 Qualify Referrals"><rect x="0" y="0" width="2024" height="1100" rx="0" fill="#F7F7F9" stroke="none" stroke-width="1" /><rect x="0" y="0" width="2024" height="74" rx="0" fill="#F7F7F9" stroke="none" stroke-width="1" /><path d="M0 74L2024 74" fill="none" stroke="#DEDEE3" stroke-width="1" /><g transform="translate(27 22) scale(0.9166666666666666)"><path d="M15 5L8 12l7 7M8 12h13" fill="none" stroke="#77776E" stroke-width="1.8" stroke-linecap="round" stroke-linejoin="round" /></g><text x="65" y="33" font-family="Arial" font-size="26" font-weight="400" fill="#202020">Qualify Referrals</text><text x="65" y="57" font-family="Arial" font-size="15" font-weight="700" fill="#202020">Work started: 3/13/2025, 11:58:07 AM   Current stage: Qualification</text><g transform="translate(1703 23) scale(0.8333333333333334)"><path d="M13 4h7v7M20 4l-9 9M9 5H5v15h15v-5" fill="none" stroke="#77776E" stroke-width="1.8" stroke-linecap="round" stroke-linejoin="round" /></g><g transform="translate(1748 23) scale(0.8333333333333334)"><path d="M4 4h16v5H4zM6 9v11h12V9M10 13h4" fill="none" stroke="#77776E" stroke-width="1.8" stroke-linecap="round" stroke-linejoin="round" /></g><g id="Button Everything looks right"><rect x="1789" y="16" width="207" height="38" rx="5" fill="#8200B5" stroke="#8200B5" stroke-width="1" /><text x="1892.5" y="41.0" font-family="Arial" font-size="17" font-weight="700" fill="#FFFFFF" text-anchor="middle">Everything looks right</text></g><rect x="25" y="81" width="1000" height="996" rx="7" fill="#F7F7F9" stroke="#DEDEE3" stroke-width="1" /><text x="41" y="117" font-family="Arial" font-size="20" font-weight="400" fill="#77776E">Viewing source:</text><rect x="200" y="88" width="335" height="44" rx="4" fill="#F7F7F9" stroke="#DEDEE3" stroke-width="1" /><text x="212" y="117" font-family="Arial" font-size="20" font-weight="400" fill="#202020">Physician Written Order.pdf</text><g transform="translate(505 101) scale(0.8333333333333334)"><path d="M6 9l6 6 6-6" fill="none" stroke="#77776E" stroke-width="1.8" stroke-linecap="round" stroke-linejoin="round" /></g><g transform="translate(875 98) scale(0.9166666666666666)"><path d="M12 5v14M5 12h14" fill="none" stroke="#77776E" stroke-width="1.8" stroke-linecap="round" stroke-linejoin="round" /></g><g transform="translate(912 98) scale(0.9166666666666666)"><path d="M5 12h14" fill="none" stroke="#77776E" stroke-width="1.8" stroke-linecap="round" stroke-linejoin="round" /></g><g transform="translate(951 98) scale(0.9166666666666666)"><path d="M4 4h16v5H4zM6 9v11h12V9M10 13h4" fill="none" stroke="#77776E" stroke-width="1.8" stroke-linecap="round" stroke-linejoin="round" /></g><g transform="translate(992 98) scale(0.9166666666666666)"><path d="M12 3v12M7 10l5 5 5-5M4 16v5h16v-5" fill="none" stroke="#77776E" stroke-width="1.8" stroke-linecap="round" stroke-linejoin="round" /></g><path d="M25 137L1025 137" fill="none" stroke="#DEDEE3" stroke-width="1" /><g id="Synthetic-document-example" transform="translate(43.0 151.0)"><rect x="0" y="0" width="941.0" height="926.0" fill="#F0F0F3" /><g transform="translate(24.0 24.0)"><rect x="0" y="0" width="893.0" height="878.0" rx="3" fill="white" stroke="#D7D5DC" /><g transform="scale(1.0271604938271606)"><text x="30" y="42" fill="#8200B5" font-family="Arial" font-size="18" font-weight="700">SYNTHETIC DOCUMENT / PORTFOLIO EXAMPLE</text><text x="30" y="92" fill="#35333B" font-family="Arial" font-size="30" font-weight="700">Sample clinical order</text><text x="30" y="136" fill="#35333B" font-family="Arial" font-size="19" font-weight="400">Patient: Patient A     Record: SAMPLE-001</text><text x="30" y="172" fill="#35333B" font-family="Arial" font-size="19" font-weight="400">Date of birth: 01/01/2000</text><text x="30" y="208" fill="#35333B" font-family="Arial" font-size="19" font-weight="400">Provider: Example Clinic     Order: SAMPLE-ORDER</text><text x="30" y="244" fill="#35333B" font-family="Arial" font-size="19" font-weight="400">Document purpose: illustrative review input</text><text x="30" y="280" fill="#35333B" font-family="Arial" font-size="19" font-weight="400" /><text x="30" y="316" fill="#35333B" font-family="Arial" font-size="19" font-weight="700">REVIEW DETAILS</text><text x="30" y="352" fill="#35333B" font-family="Arial" font-size="19" font-weight="400">Requested service: sample treatment</text><text x="30" y="388" fill="#35333B" font-family="Arial" font-size="19" font-weight="400">Supporting evidence: document section A</text><text x="30" y="424" fill="#35333B" font-family="Arial" font-size="19" font-weight="400">Document date: 01/01/2025</text><text x="30" y="460" fill="#35333B" font-family="Arial" font-size="19" font-weight="400">Reviewer checks: identity, source, required fields</text><text x="30" y="496" fill="#35333B" font-family="Arial" font-size="19" font-weight="400" /><text x="30" y="532" fill="#35333B" font-family="Arial" font-size="19" font-weight="400">This example contains no original patient record.</text><text x="30" y="568" fill="#35333B" font-family="Arial" font-size="19" font-weight="400">Clinical content is illustrative and not guidance.</text><rect x="30" y="650" width="520" height="7" fill="#E4E3E8" /><rect x="30" y="685" width="460" height="7" fill="#E4E3E8" /><rect x="30" y="720" width="400" height="7" fill="#E4E3E8" /><rect x="30" y="755" width="340" height="7" fill="#E4E3E8" /></g></g></g><rect x="1041" y="81" width="962" height="996" rx="7" fill="#F7F7F9" stroke="#DEDEE3" stroke-width="1" /><rect x="1041" y="81" width="962" height="61" rx="6" fill="#E4E4E5" stroke="none" stroke-width="1" /><text x="1070" y="118" font-family="Arial" font-size="22" font-weight="700" fill="#202020">Final Decision</text><rect x="1757" y="91" width="225" height="40" rx="5" fill="#F7F7F9" stroke="none" stroke-width="1" /><text x="1771" y="118" font-family="Arial" font-size="18" font-weight="400" fill="#202020">Not Qualified</text><g transform="translate(1944 103) scale(0.8333333333333334)"><path d="M6 9l6 6 6-6" fill="none" stroke="#77776E" stroke-width="1.8" stroke-linecap="round" stroke-linejoin="round" /></g><rect x="1041" y="144" width="962" height="70" rx="0" fill="#EEEEF0" stroke="none" stroke-width="1" /><text x="1061" y="183" font-family="Arial" font-size="22" font-weight="700" fill="#8200B5">E0601</text><g transform="translate(1130 166) scale(0.8333333333333334)"><path d="M4 17l1 4 4-1L20 9l-5-5L4 17M13 6l5 5" fill="none" stroke="#202020" stroke-width="1.8" stroke-linecap="round" stroke-linejoin="round" /></g><rect x="1834" y="163" width="126" height="28" rx="14" fill="#F4E1E2" stroke="none" stroke-width="1" /><circle cx="1851" cy="177" r="8" fill="#A81C23" stroke="none" stroke-width="1" /><g transform="translate(1844 170) scale(0.5833333333333334)"><path d="M12 5v14M5 12h14" fill="none" stroke="#FFFFFF" stroke-width="1.8" stroke-linecap="round" stroke-linejoin="round" /></g><text x="1865" y="183" font-family="Arial" font-size="16" font-weight="700" fill="#A81C23">Not qualified</text><g transform="translate(1971 169) scale(0.75)"><path d="M6 15l6-6 6 6" fill="none" stroke="#77776E" stroke-width="1.8" stroke-linecap="round" stroke-linejoin="round" /></g><text x="1060" y="252" font-family="Arial" font-size="19" font-weight="400" fill="#57574D">Continuous positive airway pressure (CPAP) device</text><rect x="1060" y="275" width="921" height="45" rx="7" fill="#E0EBDE" stroke="none" stroke-width="1" /><text x="1070" y="304" font-family="Arial" font-size="17" font-weight="700" fill="#202020">A.  Diagnosis of Obstructive Sleep Apnea</text><circle cx="1939" cy="298" r="10" fill="#327E21" stroke="none" stroke-width="1" /><g transform="translate(1931 290) scale(0.6666666666666666)"><path d="M5 12l4 4L19 6" fill="none" stroke="#FFFFFF" stroke-width="1.8" stroke-linecap="round" stroke-linejoin="round" /></g><g transform="translate(1957 289) scale(0.75)"><path d="M6 9l6 6 6-6" fill="none" stroke="#77776E" stroke-width="1.8" stroke-linecap="round" stroke-linejoin="round" /></g><rect x="1060" y="330" width="921" height="45" rx="7" fill="#EEDFE1" stroke="none" stroke-width="1" /><text x="1070" y="359" font-family="Arial" font-size="17" font-weight="700" fill="#202020">B.  Medicare-covered diagnostic sleep test must be scored at either 3% or 4% and meets either: Apnea-…</text><circle cx="1939" cy="353" r="10" fill="#A81C23" stroke="none" stroke-width="1" /><g transform="translate(1931 345) scale(0.6666666666666666)"><path d="M12 5v14M5 12h14" fill="none" stroke="#FFFFFF" stroke-width="1.8" stroke-linecap="round" stroke-linejoin="round" /></g><g transform="translate(1957 344) scale(0.75)"><path d="M6 9l6 6 6-6" fill="none" stroke="#77776E" stroke-width="1.8" stroke-linecap="round" stroke-linejoin="round" /></g><rect x="1060" y="385" width="921" height="45" rx="7" fill="#E0EBDE" stroke="none" stroke-width="1" /><text x="1070" y="414" font-family="Arial" font-size="17" font-weight="700" fill="#202020">C.  Physician Written Order A Physician Written Order must contain all of the following elements: - Ben…</text><circle cx="1939" cy="408" r="10" fill="#327E21" stroke="none" stroke-width="1" /><g transform="translate(1931 400) scale(0.6666666666666666)"><path d="M5 12l4 4L19 6" fill="none" stroke="#FFFFFF" stroke-width="1.8" stroke-linecap="round" stroke-linejoin="round" /></g><g transform="translate(1957 399) scale(0.75)"><path d="M6 9l6 6 6-6" fill="none" stroke="#77776E" stroke-width="1.8" stroke-linecap="round" stroke-linejoin="round" /></g><rect x="1060" y="440" width="921" height="45" rx="7" fill="#EEDFE1" stroke="none" stroke-width="1" /><text x="1070" y="469" font-family="Arial" font-size="17" font-weight="700" fill="#202020">D.  Signed and Dated Sleep Studies</text><circle cx="1939" cy="463" r="10" fill="#A81C23" stroke="none" stroke-width="1" /><g transform="translate(1931 455) scale(0.6666666666666666)"><path d="M12 5v14M5 12h14" fill="none" stroke="#FFFFFF" stroke-width="1.8" stroke-linecap="round" stroke-linejoin="round" /></g><g transform="translate(1957 454) scale(0.75)"><path d="M6 9l6 6 6-6" fill="none" stroke="#77776E" stroke-width="1.8" stroke-linecap="round" stroke-linejoin="round" /></g><rect x="1060" y="495" width="921" height="45" rx="7" fill="#E0EBDE" stroke="none" stroke-width="1" /><text x="1070" y="524" font-family="Arial" font-size="17" font-weight="700" fill="#202020">E.  The encounter notes must be signed and dated</text><circle cx="1939" cy="518" r="10" fill="#327E21" stroke="none" stroke-width="1" /><g transform="translate(1931 510) scale(0.6666666666666666)"><path d="M5 12l4 4L19 6" fill="none" stroke="#FFFFFF" stroke-width="1.8" stroke-linecap="round" stroke-linejoin="round" /></g><g transform="translate(1957 509) scale(0.75)"><path d="M6 9l6 6 6-6" fill="none" stroke="#77776E" stroke-width="1.8" stroke-linecap="round" stroke-linejoin="round" /></g><rect x="1060" y="550" width="921" height="45" rx="7" fill="#EEDFE1" stroke="none" stroke-width="1" /><text x="1070" y="579" font-family="Arial" font-size="17" font-weight="700" fill="#202020">F.  The Face to Face Note must be prior to the Sleep Study. The date of the encounter in the Face to Fac…</text><circle cx="1939" cy="573" r="10" fill="#A81C23" stroke="none" stroke-width="1" /><g transform="translate(1931 565) scale(0.6666666666666666)"><path d="M12 5v14M5 12h14" fill="none" stroke="#FFFFFF" stroke-width="1.8" stroke-linecap="round" stroke-linejoin="round" /></g><g transform="translate(1957 564) scale(0.75)"><path d="M6 9l6 6 6-6" fill="none" stroke="#77776E" stroke-width="1.8" stroke-linecap="round" stroke-linejoin="round" /></g><circle cx="1981" cy="1055" r="27" fill="#8200B5" stroke="none" stroke-width="1" /><g transform="translate(1964 1038) scale(1.4166666666666667)"><path d="M4 4h16v12H12l-5 5v-5H4zM7 8h10M7 12h7" fill="none" stroke="#FFFFFF" stroke-width="1.8" stroke-linecap="round" stroke-linejoin="round" /></g></g><rect x="72" y="1079" width="1050" height="21" fill="#F7F7F9" /><text x="80" y="1095" fill="#77716E" font-family="Arial" font-size="13" font-weight="400">PORTFOLIO RECONSTRUCTION  /  SYNTHETIC RECORDS  /  ILLUSTRATIVE METRICS</text></svg>